<?xml version="1.0" encoding="utf-8"?>
<!-- Generator: Adobe Illustrator 24.1.3, SVG Export Plug-In . SVG Version: 6.00 Build 0)  -->
<svg version="1.1" id="Layer_1" xmlns="http://www.w3.org/2000/svg" xmlns:xlink="http://www.w3.org/1999/xlink" x="0px" y="0px"
	 viewBox="0 0 551 551" style="enable-background:new 0 0 551 551;" xml:space="preserve">
<style type="text/css">
	.st0{fill:#43729D;}
	.st1{fill:#FFFFFF;}
</style>
<g>
	<circle class="st0" cx="275.5" cy="275.5" r="275.5"/>
	<path class="st1" d="M399.7,291.4c-13.6,0-25.6,7.3-32.3,18.1l0.5-0.9l-42.1-24.1l38.4-80.9l-0.9-0.4l0,0
		c8.3,3.8,17.5,5.9,27.1,5.9c36.2,0,65.7-29.5,65.7-65.8c0-36.2-29.5-65.7-65.7-65.7s-65.7,29.5-65.7,65.7c0,12.4,3.5,23.9,9.5,33.8
		l0,0l-0.5-0.8l-78.1,48.8l0.5,0.8l0,0c-3.5-3.3-8.1-5.4-13.3-5.4c-6.6,0-12.5,3.4-16,8.4l0.5-0.9l-53.8-30.7l-0.5,0.9l0,0
		c2.8-5.3,4.5-11.4,4.5-17.8c0-20.9-17-37.9-37.9-37.9s-37.9,17-37.9,37.9s17,37.9,37.9,37.9c4.1,0,8.1-0.7,11.8-1.9l0,0l-0.9,0.3
		l21.8,60.4L132,302.5l0.5,0.8c-8.5-12.8-22.9-21.2-39.4-21.2c-26,0-47.2,21.1-47.2,47.1s21.2,47.2,47.2,47.2
		c25.6,0,46.5-20.6,47.1-46.1v1h33v-1c1.6,9.1,9.5,16,19,16c2,0,3.8-0.4,5.6-0.9l-0.9,0.3l28.6,79.1l0.9-0.3
		c-14,5.6-24,19.2-24,35.2c0,20.9,17,37.9,37.9,37.9s37.9-17,37.9-37.9c0-14.7-8.4-27.4-20.6-33.7l0.9,0.4l37.7-79.5l-0.9-0.4
		c2.5,1.2,5.2,1.9,8.2,1.9c10.2,0,18.6-8.1,19.1-18.2v1h39.3v-1l0,0c0.6,20.4,17.3,36.8,37.8,36.8c20.9,0,37.9-17,37.9-37.9
		C437.7,308.4,420.6,291.4,399.7,291.4z M361.3,202.3L361.3,202.3l-0.9-0.4l-38.2,80.6l-61.4-35.1l-0.5,0.9c1.2-2.5,1.9-5.3,1.9-8.3
		c0-4.3-1.5-8.2-3.9-11.4l77.7-48.5l-0.5-0.8l0,0C341.8,189.1,350.7,197,361.3,202.3z M171.9,200.4l-0.5,0.9l53.9,30.8l0.5-0.9
		c-1.4,2.7-2.3,5.6-2.3,8.8c0,2.1,0.4,4,1,5.9l0,0L224,245l-48,30l-21.5-59.5l-0.9,0.3l0,0C161.2,212.8,167.6,207.3,171.9,200.4z
		 M225.3,248L225.3,248L225.3,248L225.3,248z M173,327.1L173,327.1l-32.7,0.1v1l0,0c-0.2-8.4-2.6-16.2-6.6-22.9l0,0l0.5,0.8
		l39.5-24.7l10.2,28.3l0.9-0.3C177.9,312.2,173,319.1,173,327.1z M228.6,423.8L228.6,423.8l0.9-0.3L201,344.4l-0.9,0.3
		c5.8-2.6,10.1-7.9,11.2-14.4v1h73v-1c0.4,6.4,3.9,12,9,15.2l0,0l-0.9-0.4l-37.7,79.5l0.9,0.4c-4.7-2.1-9.8-3.2-15.2-3.2
		C236.2,421.9,232.3,422.6,228.6,423.8z M211.5,328.1L211.5,328.1L211.5,328.1L211.5,328.1z M284.3,328.1v-1h-72.7c0,0,0,0,0-0.1
		c0-10.6-8.7-19.3-19.3-19.3c-1.8,0-3.6,0.3-5.3,0.8l0.9-0.3L177.4,279l48.3-30.2c3.2,6.2,9.6,10.4,17.1,10.4
		c6.9,0,12.9-3.6,16.3-9.1l-0.5,0.9l61.7,35.3l-11.6,24.4l0.9,0.4c-2-0.7-4-1.1-6.2-1.1C293.2,310,284.9,318.1,284.3,328.1z
		 M361.9,328.1v-1h-39.3v1c-0.4-7.1-4.7-13.2-10.9-16.2l0.9,0.4l11.4-23.9l41.8,23.9l0.5-0.9l0,0
		C363.7,316.5,362.1,322.1,361.9,328.1z"/>
</g>
</svg>
