<?xml version="1.0" encoding="utf-8"?>
<!-- Generator: Adobe Illustrator 24.1.3, SVG Export Plug-In . SVG Version: 6.00 Build 0)  -->
<svg version="1.1" id="Layer_1" xmlns="http://www.w3.org/2000/svg" xmlns:xlink="http://www.w3.org/1999/xlink" x="0px" y="0px"
	 viewBox="0 0 836.4 194.2" style="enable-background:new 0 0 836.4 194.2;" xml:space="preserve">
<style type="text/css">
	.st0{fill:#B9B9B9;}
	.st1{fill:#43729D;}
	.st2{fill:#FFFFFF;}
</style>
<g>
	<path class="st0" d="M309.8,102.1c0,19.8-5.9,34-17.7,42.6c-11.8,8.6-26.5,12.9-44.2,12.9h-36.1l6.7-103.2h50.4
		c12.4,0,22.3,4.6,29.8,13.9C306.1,77.7,309.8,88.9,309.8,102.1z M295.6,100.9c0-13.8-3.5-23.5-10.6-28.8
		c-7.1-5.4-16.8-8.1-29.2-8.1l-24.2,0l-5.1,83.4l21.2,0c14.6,0,26.2-3.8,34.8-11.4C291.3,128.4,295.6,116.7,295.6,100.9z"/>
	<path class="st0" d="M336,81.2c0,8-0.5,21.2-1.5,39.4c-1,18.3-1.6,30.6-1.6,37H319c0-8,0.5-21.2,1.5-39.4c1-18.2,1.6-30.6,1.6-37
		H336z M337.7,53.9L337,64.5h-14.6c0.1-1.7,0.3-3.7,0.5-6.1c0.3-2.4,0.4-3.9,0.4-4.4H337.7z"/>
	<path class="st0" d="M395.7,91.9c-3.3-0.9-6.5-1.7-9.7-2.2c-3.2-0.6-6.1-0.9-8.8-0.9c-3.5,0-6.6,0.8-9.1,2.4
		c-2.6,1.6-3.9,4.3-3.9,8c0,3.3,2.5,7.1,7.5,11.3c5,4.2,10,8.4,15,12.6c5.3,5.5,7.9,11,7.9,16.6c0,6.3-2.3,11.1-6.8,14.5
		c-4.5,3.4-11.5,5-20.8,5c-3.3,0-6.7-0.3-10.1-0.9c-3.4-0.6-7.1-1.3-11.2-2.2l-0.9-10.8c4.5,1.3,8.3,2.4,11.6,3.2
		c3.3,0.8,6.4,1.2,9.4,1.2c4.3,0,7.9-0.6,11-1.9c3.1-1.2,4.7-3.5,4.7-6.7c0-4.8-2.7-9.7-8.1-14.7c-5.1-4.3-10.2-8.7-15.3-13
		c-5.5-5.3-8.3-10.4-8.3-15.5c0-5.8,2.5-10.3,7.5-13.6c5-3.3,11.1-5,18.2-5c3.3,0,6.6,0.3,9.8,0.8c3.3,0.5,6.4,1,9.5,1.4L395.7,91.9
		z"/>
	<path class="st0" d="M464.8,92.8c-3-1.1-6.1-2-9.5-2.7c-3.3-0.7-6.5-1-9.5-1c-8.5,0-15.5,2.8-21.1,8.5c-5.6,5.7-8.4,13.6-8.4,23.7
		c0,9.7,2.7,16.8,8,21.2c5.3,4.4,12.2,6.7,20.5,6.7c5.7,0,11.5-1,17.5-3.1l-2.2,10.8c-5.6,1.2-11.3,1.9-17.2,1.9
		c-11.8,0-21.3-3.1-28.5-9.2c-7.2-6.1-10.8-15.8-10.8-28.9c0-12.7,3.5-22.8,10.5-30.3c7-7.5,16.9-11.2,29.8-11.2
		c3.2,0,6.8,0.4,10.7,1.1c3.9,0.7,7,1.3,9.1,1.7L464.8,92.8z"/>
	<path class="st0" d="M551.4,117.9c0,12.7-3.8,22.8-11.4,30.1c-7.6,7.4-17,11.1-28.3,11.1c-11.3,0-20.5-3.3-27.8-9.9
		c-7.3-6.6-10.9-16.1-10.9-28.5c0-12.9,3.8-23.1,11.5-30.5c7.7-7.4,17.5-11.1,29.4-11.1c10.9,0,19.9,3.2,27,9.7
		C547.9,95.3,551.4,105,551.4,117.9z M538.1,117.9c0-9.5-2.1-16.7-6.3-21.6c-4.2-4.9-10.3-7.4-18.2-7.4c-8.5,0-15.2,3.1-20.3,9.4
		c-5.1,6.3-7.6,13.6-7.6,22.1c0,10.1,2.5,17.5,7.4,22c4.9,4.5,11.4,6.8,19.6,6.8c7.7,0,13.9-2.7,18.5-8.1
		C535.8,135.7,538.1,128,538.1,117.9z"/>
	<path class="st0" d="M630,81.1c-5.8,11.7-11.7,24.3-17.7,37.7c-6,13.5-11.6,26.4-16.7,38.8h-15.2c-3.6-11.6-7.8-23.9-12.5-37
		c-4.7-13.1-9.7-26.3-15-39.5h14.1c3.1,10.6,6.5,21.5,10.3,32.7c3.8,11.2,7.6,22,11.5,32.4c4.3-9.6,8.9-20.3,13.6-32.1
		c4.7-11.8,9-22.8,12.9-33H630z"/>
	<path class="st0" d="M704.1,115.8h-57.7l-0.5,5c0,8.1,2.1,14.9,6.4,20.5c4.3,5.6,10.4,8.4,18.4,8.4c8.6,0,17.7-1.3,27.3-4
		l-1.9,10.5c-7.7,1.7-15.5,2.5-23.2,2.5c-14.3,0-24.4-3.4-30.5-10.3c-6.1-6.9-9.1-15.8-9.1-26.9c0-12.1,3.2-22.1,9.5-30.1
		c6.4-8,16.1-12,29.4-12c11.9,0,20.2,3.5,24.9,10.5C701.7,96.6,704.1,105.3,704.1,115.8z M692,109.7c0-6.9-1.6-12.4-4.8-16.6
		c-3.2-4.1-8.7-6.2-16.4-6.2c-5.9,0-11.1,2.2-15.5,6.5c-4.4,4.3-7.2,9.7-8.4,16L692,109.7z"/>
	<path class="st0" d="M758.5,91.3c-2.9-0.4-5.8-0.8-8.6-1.2c-10.1,0-16.6,4.8-19.6,14.5c-3,9.7-4.5,22.7-4.5,39.1c0,2.4,0,4.7,0,7.1
		c0,2.3,0,4.6,0,6.9h-13c0-7.2,0.2-15.4,0.6-24.5c0.4-9.1,0.8-18.2,1.2-27.4c0.4-9.1,0.6-17.4,0.6-24.7h13c0,1.3-0.1,3.4-0.3,6.2
		c-0.2,2.8-0.3,4.9-0.3,6.2c2.7-4.8,5.9-8.3,9.7-10.7c3.8-2.4,8.3-3.6,13.6-3.6c0.9,0,2,0.1,3.3,0.4c1.2,0.3,2.3,0.4,3.1,0.5
		L758.5,91.3z"/>
	<path class="st0" d="M836.4,81.1c-4.8,9.6-10.7,22.4-18,38.3c-7.2,15.9-12.8,28.3-16.7,37.2c-3.9,8.9-7.1,16.1-9.6,21.8
		c-2.5,5.6-5.9,9.7-10.3,12.2c-4.4,2.5-9.5,3.7-15.4,3.7c-1.8,0-3.7-0.2-5.8-0.6c-2.1-0.4-4.1-0.8-6-1.1l-1.2-11
		c2.6,0.9,4.8,1.7,6.6,2.2c1.8,0.5,3.7,0.8,5.7,0.8c1,0,2.7-0.2,5-0.6c2.3-0.4,4.6-2,7.1-4.7c2.5-2.7,4.5-6.1,6.2-10l3.9-9.6
		c-2.9-9-5.7-17.4-8.4-25.3c-2.7-7.9-5.6-16.1-8.7-24.6c-3.1-8.5-6.7-18-10.7-28.5h14.1c3.4,12.2,6.7,23.5,9.9,33.9
		c3.2,10.4,6.9,21.3,11,32.8c5-11.1,9.7-22.1,14.2-33c4.5-10.9,8.9-22.2,13.3-33.6H836.4z"/>
</g>
<g>
	<circle class="st1" cx="97" cy="97" r="97"/>
	<path class="st2" d="M140.7,102.6c-4.8,0-9,2.6-11.4,6.4l0.2-0.3l-14.8-8.5l13.5-28.5l-0.3-0.1l0,0c2.9,1.3,6.2,2.1,9.5,2.1
		c12.7,0,23.1-10.4,23.1-23.2c0-12.7-10.4-23.1-23.1-23.1s-23.1,10.4-23.1,23.1c0,4.4,1.2,8.4,3.3,11.9l0,0l-0.2-0.3L90,79.2
		l0.2,0.3l0,0c-1.2-1.2-2.9-1.9-4.7-1.9c-2.3,0-4.4,1.2-5.6,3l0.2-0.3L61.1,69.5l-0.2,0.3l0,0c1-1.9,1.6-4,1.6-6.3
		c0-7.4-6-13.3-13.3-13.3s-13.3,6-13.3,13.3s6,13.3,13.3,13.3c1.4,0,2.9-0.2,4.2-0.7l0,0L53,76.3l7.7,21.3l-14.2,8.9l0.2,0.3
		c-3-4.5-8.1-7.5-13.9-7.5c-9.2,0-16.6,7.4-16.6,16.6s7.5,16.6,16.6,16.6c9,0,16.4-7.3,16.6-16.2v0.4H61v-0.4
		c0.6,3.2,3.3,5.6,6.7,5.6c0.7,0,1.3-0.1,2-0.3l-0.3,0.1l10.1,27.9l0.3-0.1c-4.9,2-8.5,6.8-8.5,12.4c0,7.4,6,13.3,13.3,13.3
		s13.3-6,13.3-13.3c0-5.2-3-9.6-7.3-11.9l0.3,0.1l13.3-28L104,122c0.9,0.4,1.8,0.7,2.9,0.7c3.6,0,6.5-2.9,6.7-6.4v0.4h13.8v-0.4l0,0
		c0.2,7.2,6.1,13,13.3,13c7.4,0,13.3-6,13.3-13.3C154.1,108.6,148.1,102.6,140.7,102.6z M127.2,71.2L127.2,71.2l-0.3-0.1l-13.5,28.4
		L91.8,87.1l-0.2,0.3c0.4-0.9,0.7-1.9,0.7-2.9c0-1.5-0.5-2.9-1.4-4l27.4-17.1l-0.2-0.3l0,0C120.3,66.6,123.5,69.4,127.2,71.2z
		 M60.5,70.5l-0.2,0.3l19,10.8l0.2-0.3c-0.5,1-0.8,2-0.8,3.1c0,0.7,0.1,1.4,0.4,2.1l0,0l-0.2-0.3L62,96.8l-7.6-20.9L54.1,76l0,0
		C56.8,74.9,59,73,60.5,70.5z M79.3,87.3L79.3,87.3L79.3,87.3L79.3,87.3z M60.9,115.2L60.9,115.2l-11.5,0v0.4l0,0
		c-0.1-3-0.9-5.7-2.3-8.1l0,0l0.2,0.3l13.9-8.7l3.6,10l0.3-0.1C62.6,109.9,60.9,112.3,60.9,115.2z M80.5,149.2L80.5,149.2l0.3-0.1
		l-10-27.9l-0.3,0.1c2-0.9,3.6-2.8,3.9-5.1v0.4h25.7v-0.4c0.1,2.3,1.4,4.2,3.2,5.4l0,0l-0.3-0.1l-13.3,28l0.3,0.1
		c-1.7-0.7-3.5-1.1-5.4-1.1C83.2,148.5,81.8,148.8,80.5,149.2z M74.5,115.5L74.5,115.5L74.5,115.5L74.5,115.5z M100.1,115.5v-0.4
		H74.5c0,0,0,0,0,0c0-3.7-3.1-6.8-6.8-6.8c-0.6,0-1.3,0.1-1.9,0.3l0.3-0.1l-3.7-10.3l17-10.6c1.1,2.2,3.4,3.7,6,3.7
		c2.4,0,4.5-1.3,5.7-3.2l-0.2,0.3l21.7,12.4l-4.1,8.6l0.3,0.1c-0.7-0.2-1.4-0.4-2.2-0.4C103.2,109.1,100.3,112,100.1,115.5z
		 M127.4,115.5v-0.4h-13.8v0.4c-0.1-2.5-1.7-4.6-3.8-5.7l0.3,0.1l4-8.4l14.7,8.4l0.2-0.3l0,0C128.1,111.4,127.5,113.4,127.4,115.5z"
		/>
</g>
</svg>
