<?xml version="1.0" encoding="utf-8"?>
<!-- Generator: Adobe Illustrator 24.1.3, SVG Export Plug-In . SVG Version: 6.00 Build 0)  -->
<svg version="1.1" id="Layer_1" xmlns="http://www.w3.org/2000/svg" xmlns:xlink="http://www.w3.org/1999/xlink" x="0px" y="0px"
	 viewBox="0 0 410.2 420" style="enable-background:new 0 0 410.2 420;" xml:space="preserve">
<style type="text/css">
	.st0{fill:#43729D;}
</style>
<path class="st0" d="M353.8,213.8c-13.6,0-25.6,7.3-32.3,18.1l0.5-0.9l-42.1-24.1l38.4-80.9l-0.9-0.4l0,0c8.3,3.8,17.5,5.9,27.1,5.9
	c36.2,0,65.7-29.5,65.7-65.8c0-36.2-29.5-65.7-65.7-65.7s-65.7,29.5-65.7,65.7c0,12.4,3.5,23.9,9.5,33.8l0,0l-0.5-0.8l-78.1,48.8
	l0.5,0.8l0,0c-3.5-3.3-8.1-5.4-13.3-5.4c-6.6,0-12.5,3.4-16,8.4l0.5-0.9l-53.8-30.7l-0.5,0.9l0,0c2.8-5.3,4.5-11.4,4.5-17.8
	c0-20.9-17-37.9-37.9-37.9s-37.9,17-37.9,37.9s17,37.9,37.9,37.9c4.1,0,8.1-0.7,11.8-1.9l0,0l-0.9,0.3l21.8,60.4l-40.3,25.4l0.5,0.8
	c-8.5-12.8-22.9-21.2-39.4-21.2c-26,0-47.2,21.1-47.2,47.1s21.2,47.2,47.2,47.2c25.6,0,46.5-20.6,47.1-46.1v1h33v-1
	c1.6,9.1,9.5,16,19,16c2,0,3.8-0.4,5.6-0.9l-0.9,0.3l28.6,79.1l0.9-0.3c-14,5.6-24,19.2-24,35.2c0,20.9,17,37.9,37.9,37.9
	s37.9-17,37.9-37.9c0-14.7-8.4-27.4-20.6-33.7l0.9,0.4l37.7-79.5l-0.9-0.4c2.5,1.2,5.2,1.9,8.2,1.9c10.2,0,18.6-8.1,19.1-18.2v1H316
	v-1l0,0c0.6,20.4,17.3,36.8,37.8,36.8c20.9,0,37.9-17,37.9-37.9C391.8,230.8,374.7,213.8,353.8,213.8z M315.4,124.7L315.4,124.7
	l-0.9-0.4l-38.2,80.6l-61.4-35.1l-0.5,0.9c1.2-2.5,1.9-5.3,1.9-8.3c0-4.3-1.5-8.2-3.9-11.4l77.7-48.5l-0.5-0.8l0,0
	C295.9,111.5,304.8,119.4,315.4,124.7z M126,122.8l-0.5,0.9l53.9,30.8l0.5-0.9c-1.4,2.7-2.3,5.6-2.3,8.8c0,2.1,0.4,4,1,5.9l0,0
	l-0.5-0.9l-48,30l-21.5-59.5l-0.9,0.3l0,0C115.3,135.2,121.7,129.7,126,122.8z M179.4,170.4L179.4,170.4L179.4,170.4L179.4,170.4z
	 M127.1,249.5L127.1,249.5l-32.7,0.1v1l0,0c-0.2-8.4-2.6-16.2-6.6-22.9l0,0l0.5,0.8l39.5-24.7l10.2,28.3l0.9-0.3
	C132,234.6,127.1,241.5,127.1,249.5z M182.7,346.2L182.7,346.2l0.9-0.3l-28.5-79.1l-0.9,0.3c5.8-2.6,10.1-7.9,11.2-14.4v1h73v-1
	c0.4,6.4,3.9,12,9,15.2l0,0l-0.9-0.4L208.8,347l0.9,0.4c-4.7-2.1-9.8-3.2-15.2-3.2C190.3,344.3,186.4,345,182.7,346.2z M165.6,250.5
	L165.6,250.5L165.6,250.5L165.6,250.5z M238.4,250.5v-1h-72.7c0,0,0,0,0-0.1c0-10.6-8.7-19.3-19.3-19.3c-1.8,0-3.6,0.3-5.3,0.8
	l0.9-0.3l-10.5-29.2l48.3-30.2c3.2,6.2,9.6,10.4,17.1,10.4c6.9,0,12.9-3.6,16.3-9.1l-0.5,0.9l61.7,35.3l-11.6,24.4l0.9,0.4
	c-2-0.7-4-1.1-6.2-1.1C247.3,232.4,239,240.5,238.4,250.5z M316,250.5v-1h-39.3v1c-0.4-7.1-4.7-13.2-10.9-16.2l0.9,0.4l11.4-23.9
	l41.8,23.9l0.5-0.9l0,0C317.8,238.9,316.2,244.5,316,250.5z"/>
</svg>
